<?xml version="1.0" encoding="UTF-8"?>
<!DOCTYPE svg PUBLIC "-//W3C//DTD SVG 1.1//EN" "http://www.w3.org/Graphics/SVG/1.1/DTD/svg11.dtd">
<svg xmlns="http://www.w3.org/2000/svg" version="1.1" width="1000px" height="1000px" style="shape-rendering:geometricPrecision; text-rendering:geometricPrecision; image-rendering:optimizeQuality; fill-rule:evenodd; clip-rule:evenodd" xmlns:xlink="http://www.w3.org/1999/xlink">
<g><path style="opacity:1" fill="#000000" d="M -0.5,-0.5 C 332.833,-0.5 666.167,-0.5 999.5,-0.5C 999.5,332.833 999.5,666.167 999.5,999.5C 666.167,999.5 332.833,999.5 -0.5,999.5C -0.5,666.167 -0.5,332.833 -0.5,-0.5 Z"/></g>
<g><path style="opacity:1" fill="#f9f9f9" d="M 814.5,181.5 C 814.833,387.168 814.5,592.834 813.5,798.5C 812.638,799.766 811.971,801.099 811.5,802.5C 811.047,803.458 810.381,804.292 809.5,805C 805.903,806.277 802.236,806.61 798.5,806C 795.197,803.372 791.864,800.705 788.5,798C 588.333,597.833 388.167,397.667 188,197.5C 185.635,193.486 184.969,189.153 186,184.5C 187.883,183.347 188.716,181.681 188.5,179.5C 191.592,178.664 194.759,177.997 198,177.5C 201.033,177.731 203.866,178.564 206.5,180C 401,374.5 595.5,569 790,763.5C 790.667,581.167 790.667,398.833 790,216.5C 721.737,284.386 653.57,352.386 585.5,420.5C 578.417,425.011 572.251,424.011 567,417.5C 566.333,412.833 566.333,408.167 567,403.5C 643.167,327.333 719.333,251.167 795.5,175C 801.004,174.17 806.337,174.67 811.5,176.5C 811.721,178.664 812.721,180.33 814.5,181.5 Z"/></g>
<g><path style="opacity:1" fill="#5c5c5c" d="M 814.5,181.5 C 815.833,387.334 815.833,593.334 814.5,799.5C 813.859,800.993 812.859,801.993 811.5,802.5C 811.971,801.099 812.638,799.766 813.5,798.5C 814.5,592.834 814.833,387.168 814.5,181.5 Z"/></g>
<g><path style="opacity:1" fill="#f8f8f8" d="M 603.5,805.5 C 601.283,806.369 598.95,806.702 596.5,806.5C 594.418,804.897 592.085,803.563 589.5,802.5C 462.086,675.086 334.752,547.752 207.5,420.5C 206.638,419.234 205.971,417.901 205.5,416.5C 204.167,412.5 204.167,408.5 205.5,404.5C 207.953,400.691 211.453,398.357 216,397.5C 218.982,399.042 222.149,400.209 225.5,401C 353.306,528.806 481.14,656.64 609,784.5C 613.492,790.753 613.658,797.086 609.5,803.5C 607.5,804.167 605.5,804.833 603.5,805.5 Z"/></g>
<g><path style="opacity:1" fill="#a4a4a4" d="M 205.5,404.5 C 204.167,408.5 204.167,412.5 205.5,416.5C 202.833,412.5 202.833,408.5 205.5,404.5 Z"/></g>
<g><path style="opacity:1" fill="#f9f9f9" d="M 412.5,805.5 C 410.283,806.369 407.95,806.702 405.5,806.5C 403.958,805.837 402.291,805.17 400.5,804.5C 343.684,747.585 286.85,690.585 230,633.5C 229.833,688.503 229.333,743.503 228.5,798.5C 226.742,802.796 223.742,805.463 219.5,806.5C 217.05,806.702 214.717,806.369 212.5,805.5C 208.059,803.713 205.392,800.379 204.5,795.5C 203.333,730.836 203.167,666.169 204,601.5C 204.682,593.482 209.016,589.816 217,590.5C 219.225,590.565 221.392,590.898 223.5,591.5C 288.86,656.86 354.194,722.194 419.5,787.5C 422.344,795.903 420.01,801.903 412.5,805.5 Z"/></g>
<g><path style="opacity:1" fill="#4e4e4e" d="M 212.5,805.5 C 214.717,806.369 217.05,806.702 219.5,806.5C 218.551,807.152 217.385,807.486 216,807.5C 214.319,807.392 213.152,806.725 212.5,805.5 Z"/></g>
<g><path style="opacity:1" fill="#505050" d="M 412.5,805.5 C 411.848,806.725 410.681,807.392 409,807.5C 407.615,807.486 406.449,807.152 405.5,806.5C 407.95,806.702 410.283,806.369 412.5,805.5 Z"/></g>
<g><path style="opacity:1" fill="#505050" d="M 603.5,805.5 C 602.848,806.725 601.681,807.392 600,807.5C 598.615,807.486 597.449,807.152 596.5,806.5C 598.95,806.702 601.283,806.369 603.5,805.5 Z"/></g>
</svg>
